<?xml version="1.0" encoding="UTF-8"?>
<!DOCTYPE svg PUBLIC "-//W3C//DTD SVG 1.1//EN" "http://www.w3.org/Graphics/SVG/1.1/DTD/svg11.dtd">
<!-- Creator: CorelDRAW 2018 (64-Bit) -->
<svg xmlns="http://www.w3.org/2000/svg" xml:space="preserve" width="886px" height="150px" version="1.1" style="shape-rendering:geometricPrecision; text-rendering:geometricPrecision; image-rendering:optimizeQuality; fill-rule:evenodd; clip-rule:evenodd"
viewBox="0 0 886 150.11"
 xmlns:xlink="http://www.w3.org/1999/xlink">
 <defs>
  <style type="text/css">
   <![CDATA[
    .fil1 {fill:#C82728;fill-rule:nonzero}
    .fil0 {fill:#322F44;fill-rule:nonzero}
   ]]>
  </style>
 </defs>
 <g id="Слой_x0020_1">
  <metadata id="CorelCorpID_0Corel-Layer"/>
  <polygon class="fil0" points="110.32,38.41 150.76,38.41 150.76,24.61 110.32,24.61 93.24,24.61 93.24,38.42 93.24,54.45 93.24,81.5 93.24,98.91 150.76,98.91 150.76,85.11 110.32,85.11 110.32,81.5 110.32,67.92 144.82,67.92 144.82,54.55 110.32,54.55 110.32,54.45 110.32,38.42 "/>
  <path class="fil0" d="M55.23 60.33l15.81 0 0 30.34c-8.22,6.2 -19.55,9.51 -30.23,9.51 -23.5,0 -40.81,-16.13 -40.81,-38.67 0,-22.54 17.31,-38.68 41.13,-38.68 13.14,0 24.04,4.49 31.3,12.93l-11.11 10.26c-5.45,-5.77 -11.75,-8.44 -19.34,-8.44 -14.52,0 -24.46,9.72 -24.46,23.93 0,13.99 9.94,23.93 24.25,23.93 4.7,0 9.08,-0.86 13.46,-3.21l0 -21.9z"/>
  <path class="fil0" d="M255.72 48.47l-16.14 27.09 0.04 22.06 16.24 0 -0.14 -49.15zm1.74 -25.64l-17.94 30.08 -25.94 43.49 -9.88 -16.59 -15.89 -26.11 0 43.92 -16.24 0 0 -74.79 14.32 0 27.99 46.47 27.56 -46.47 14.21 0 1.81 0z"/>
  <path class="fil0" d="M504.18 84.41l-0.09 0 -0.09 0 0 0 -0.1 0 0 0 -0.09 0 0 0 -0.09 0 0 0 -0.09 0 0 -0.01 -0.09 0 0 0 -0.1 0 0 0 -0.09 0 0 0 -0.09 -0.01 0 0 -0.18 0 0 0 -0.19 -0.01 0 0 -0.09 0 0 0 -0.09 -0.01 0 0 -0.09 0 0 0 -0.18 -0.01 0 0 -0.18 -0.01 0 -0.01 -0.18 -0.01 0 0 -0.09 0 0 -0.01 -0.09 0 0 0 -0.36 -0.03 0 0 -0.09 -0.01 0 0 -0.09 -0.01 0 0c-0.97,-0.1 -1.93,-0.25 -2.85,-0.45 -10.7,-2.28 -17.86,-11.07 -17.87,-22.95l0 0c0.01,-11.87 7.17,-20.67 17.87,-22.95 0.92,-0.2 1.88,-0.35 2.85,-0.45l0 0 0.09 -0.01 0 0 0.09 0 0 0 0.36 -0.04 0 0 0.09 0 0 0 0.09 -0.01 0 0 0.18 -0.01 0 0 0.18 -0.01 0 0 0.18 -0.01 0 0 0.09 -0.01 0 0 0.09 0 0 0 0.09 -0.01 0 0 0.19 -0.01 0 0 0.18 0 0 0 0.09 0 0 0 0.09 -0.01 0 0 0.1 0 0 0 0.09 0 0 0 0.09 0 0 0 0.09 0 0 0 0.09 0 0 -0.01 0.1 0 0 0 0.09 0 0.09 0 0.35 0 0 0.01 0.34 0 0 0c0.45,0.01 0.9,0.04 1.35,0.07l0 0c6.47,0.5 11.98,3.41 16.46,8.65l10.92 -10.09 -0.05 -0.06 0.05 -0.05c-4.82,-5.85 -11.43,-9.86 -19.28,-11.77 -3.43,-0.83 -7.11,-1.26 -10.98,-1.26l-0.08 0 -0.02 0 -0.05 0 -0.03 0 -0.13 0 -0.02 0 -0.13 0.01 -0.02 0c-1.48,0.01 -2.93,0.08 -4.35,0.23 -20.39,2.03 -35.1,17.19 -35.1,37.8l0 0c0,20.61 14.71,35.77 35.1,37.81 1.42,0.14 2.87,0.22 4.35,0.23l0.02 0 0.13 0 0.02 0 0.13 0 0.03 0 0.05 0 0.02 0 0.08 0c3.87,0 7.55,-0.43 10.98,-1.26 7.85,-1.9 14.46,-5.92 19.28,-11.77l-0.05 -0.04 0.05 -0.07 -10.92 -10.08c-4.33,5.06 -9.61,7.94 -15.79,8.58l-0.01 0 -0.33 0.03 0 0 -0.33 0.03 0 0 -0.34 0.03 0 0 -0.33 0.01 0 0.01 -0.34 0.01 0 0 -0.34 0.01 0 0 -0.34 0.01 0 0 -0.35 0z"/>
  <polygon class="fil0" points="864.72,24.13 864.72,98.91 850.51,98.91 813.23,53.51 813.23,98.91 796.13,98.91 796.13,24.13 810.45,24.13 847.62,69.53 847.62,24.13 "/>
  <path class="fil0" d="M603.87 74.88c5.43,-2.32 9.58,-5.92 12.2,-10.59 2.08,-3.7 3.18,-8.07 3.18,-13.03 0,-4.95 -1.08,-9.31 -3.12,-13.04 -4.87,-8.94 -15.24,-14.09 -29.35,-14.09l-32.37 0 0 14.09 31.41 0c10.57,0 15.91,4.81 15.91,13.04 0,8.12 -5.34,13.03 -15.91,13.03l-31.41 0 0 34.62 17.3 0 0 -20.84 15.91 0 14.43 20.84 18.59 0 -16.77 -24.03z"/>
  <path class="fil0" d="M380.43 90.26l5.88 -13.04c6.3,4.6 15.7,7.8 24.67,7.8 10.26,0 14.43,-3.42 14.43,-8.01 0,-14 -43.48,-4.38 -43.48,-32.16 0,-12.71 10.25,-23.29 31.51,-23.29 9.4,0 19.02,2.25 25.96,6.63l-5.34 13.14c-6.94,-3.96 -14.1,-5.88 -20.73,-5.88 -10.25,0 -14.2,3.85 -14.2,8.55 0,13.78 43.48,4.27 43.48,31.73 0,12.5 -10.37,23.18 -31.73,23.18 -11.86,0 -23.83,-3.53 -30.45,-8.65z"/>
  <polygon class="fil0" points="735.88,38.42 735.88,54.45 735.88,54.55 770.37,54.55 770.37,67.92 735.88,67.92 735.88,85.11 776.32,85.11 776.32,98.91 718.79,98.91 718.79,85.11 718.79,54.45 718.79,38.42 718.79,24.61 735.88,24.61 776.32,24.61 776.32,38.41 735.88,38.41 "/>
  <polygon class="fil0" points="658.54,38.41 698.97,38.41 698.97,24.61 658.54,24.61 641.45,24.61 641.45,38.42 641.45,54.45 641.45,81.5 641.45,98.91 698.97,98.91 698.97,85.11 658.54,85.11 658.54,81.5 658.54,67.92 693.03,67.92 693.03,54.55 658.54,54.55 658.54,54.45 658.54,38.42 "/>
  <path class="fil1" d="M290.57 97.23c-3.5,-4.94 -5.3,-10.95 -5.3,-17.44 0,-9.58 6.56,-22.86 14.23,-35.85 2.61,-4.43 -12.7,23.5 -0.13,48.71 4.28,8.61 -4.22,11.04 -8.8,4.58zm44.04 -69.93c-6.55,-9.72 -12.83,-19.03 -16.72,-27.3 -3.56,7.05 -8.68,15.13 -14.02,23.56 -12,18.94 -25.6,40.4 -25.6,56.23 0,22.43 18.25,40.68 40.68,40.68 22.43,0 40.68,-18.25 40.68,-40.68 0,-15.36 -13.3,-35.09 -25.02,-52.49z"/>
  <path class="fil0" d="M878.05 3.72c4.59,0 7.95,3.41 7.95,8.08 0,4.63 -3.36,8.06 -7.95,8.06 -4.56,0 -7.92,-3.43 -7.92,-8.06 0,-4.67 3.36,-8.08 7.92,-8.08zm0 14.81c3.89,0 6.5,-2.76 6.5,-6.73 0,-4.02 -2.61,-6.77 -6.5,-6.77 -3.86,0 -6.5,2.75 -6.5,6.77 0,3.97 2.64,6.73 6.5,6.73zm-2.91 -10.75l3.32 0c1.62,0 2.66,0.99 2.66,2.39 0,1.02 -0.58,1.85 -1.58,2.19 0.39,0.64 1.07,1.65 2.01,2.58 0,0.22 -0.67,0.86 -0.88,0.86 -1.42,-1.38 -2.21,-2.8 -2.43,-3.26l-1.18 0 0 3.14 -1.36 0 0 -6.86 -0.56 0c-0.18,0 -0.52,-0.36 -0.52,-0.52 0,-0.16 0.34,-0.52 0.52,-0.52zm1.92 1.09l0 2.59 1.33 0c0.86,0 1.33,-0.54 1.33,-1.29 0,-0.77 -0.47,-1.3 -1.33,-1.3l-1.33 0z"/>
  <polygon class="fil0" points="380.43,145.41 383.56,145.41 383.56,131.55 390.42,140.49 396.97,131.55 396.97,145.41 400.1,145.41 400.1,126.04 397.42,126.04 390.45,135.5 383.3,126.04 380.43,126.04 "/>
  <path id="1" class="fil0" d="M424.09 139.86c-1.15,1.68 -3.28,2.94 -5.63,2.94 -3.94,0 -6.89,-2.16 -7.07,-6.07l15.27 0c0.15,-0.86 0.19,-1.71 0.19,-2.35 0,-5.36 -3.84,-8.79 -8.94,-8.79 -6.45,0 -9.88,4.4 -9.88,10.1 0,6.15 4.18,10.06 10.32,10.06 3.17,0 5.93,-1.31 7.75,-4.03l-2.01 -1.86zm-6.41 -11.4c3.47,0 5.67,1.97 5.85,5.44l-12.18 0c0.48,-3.17 2.72,-5.44 6.33,-5.44z"/>
  <path id="2" class="fil0" d="M431.98 150.11l2.98 0 0 -4.7 15.95 0 0 4.7 2.98 0 0 -7.68 -2.79 0 0 -16.39 -14.24 0 0 1.78c0,7.2 -0.7,11.52 -2.72,14.61l-2.16 0 0 7.68zm7.83 -21.09l8.16 0 0 13.41 -10.47 0c1.38,-2.76 2.31,-7.12 2.31,-12.07l0 -1.34z"/>
  <polygon id="3" class="fil0" points="463.94,145.41 475.75,130.92 475.75,145.41 478.89,145.41 478.89,126.04 475.98,126.04 464.2,140.57 464.2,126.04 461.07,126.04 461.07,145.41 "/>
  <polygon id="4" class="fil0" points="487.89,145.41 504.77,145.41 504.77,150.11 507.72,150.11 507.72,142.43 505,142.43 505,126.04 501.87,126.04 501.87,142.43 491.02,142.43 491.02,126.04 487.89,126.04 "/>
  <polygon id="5" class="fil0" points="517.77,145.41 529.58,130.92 529.58,145.41 532.71,145.41 532.71,126.04 529.8,126.04 518.03,140.57 518.03,126.04 514.9,126.04 514.9,145.41 "/>
  <polygon id="6" class="fil0" points="556.03,145.41 559.16,145.41 559.16,126.04 556.03,126.04 556.03,134.08 544.85,134.08 544.85,126.04 541.72,126.04 541.72,145.41 544.85,145.41 544.85,137.03 556.03,137.03 "/>
  <path id="7" class="fil0" d="M583.18 139.82c-1.19,1.79 -3.09,2.98 -5.44,2.98 -4.39,0 -7.34,-2.87 -7.34,-7.11 0,-4.18 2.95,-7.16 6.93,-7.16 2.39,0 4.03,0.82 5.37,2.65l2.42 -1.64c-1.3,-2.39 -4.4,-3.95 -7.86,-3.95 -6.11,0 -10.18,4.4 -10.18,10.1 0,6.15 4.22,10.06 10.36,10.06 3.1,0 6.49,-1.49 7.98,-4.32l-2.24 -1.61z"/>
  <polygon id="8" class="fil0" points="592.45,145.41 595.58,145.41 595.58,138.37 597.18,136.88 605.9,145.41 610.08,145.41 599.57,134.94 609.59,126.04 605.38,126.04 595.58,134.72 595.58,126.04 592.45,126.04 "/>
  <polygon id="9" class="fil0" points="619.38,145.41 631.2,130.92 631.2,145.41 634.33,145.41 634.33,126.04 631.42,126.04 619.64,140.57 619.64,126.04 616.51,126.04 616.51,145.41 "/>
  <path id="10" class="fil0" d="M658.31 139.86c-1.15,1.68 -3.27,2.94 -5.62,2.94 -3.95,0 -6.9,-2.16 -7.08,-6.07l15.28 0c0.14,-0.86 0.18,-1.71 0.18,-2.35 0,-5.36 -3.84,-8.79 -8.94,-8.79 -6.45,0 -9.88,4.4 -9.88,10.1 0,6.15 4.18,10.06 10.33,10.06 3.16,0 5.92,-1.31 7.75,-4.03l-2.02 -1.86zm-6.41 -11.4c3.47,0 5.67,1.97 5.85,5.44l-12.18 0c0.48,-3.17 2.72,-5.44 6.33,-5.44z"/>
  <path id="11" class="fil0" d="M692.85 130.69c1.79,-1.34 3.57,-2.16 5.77,-2.16 4.06,0 5.18,2.28 5.18,5.78 -0.97,-0.3 -3.09,-0.56 -4.54,-0.56 -5.59,0 -9.28,1.79 -9.28,6 0,3.58 2.83,5.92 7.04,5.92 3.35,0 5.66,-1.49 6.78,-3.13l0 2.87 3.13 0 0 -11.96c0,-4.99 -2.75,-7.86 -7.94,-7.86 -2.86,0 -5.96,1.08 -7.75,2.76l1.61 2.34zm4.92 12.15c-2.65,0 -4.48,-1.19 -4.48,-3.2 0,-2.35 2.46,-3.13 6.38,-3.13 1.56,0 3.16,0.22 4.13,0.56l0 1.97c-0.67,1.57 -2.79,3.8 -6.03,3.8z"/>
  <polygon id="12" class="fil0" points="730.03,145.41 733.16,145.41 733.16,126.04 730.03,126.04 730.03,134.08 718.85,134.08 718.85,126.04 715.72,126.04 715.72,145.41 718.85,145.41 718.85,137.03 730.03,137.03 "/>
  <path id="13" class="fil0" d="M743.65 130.69c1.79,-1.34 3.58,-2.16 5.78,-2.16 4.06,0 5.18,2.28 5.18,5.78 -0.97,-0.3 -3.09,-0.56 -4.55,-0.56 -5.59,0 -9.28,1.79 -9.28,6 0,3.58 2.84,5.92 7.05,5.92 3.35,0 5.66,-1.49 6.78,-3.13l0 2.87 3.13 0 0 -11.96c0,-4.99 -2.76,-7.86 -7.94,-7.86 -2.87,0 -5.96,1.08 -7.75,2.76l1.6 2.34zm4.92 12.15c-2.64,0 -4.47,-1.19 -4.47,-3.2 0,-2.35 2.46,-3.13 6.37,-3.13 1.57,0 3.17,0.22 4.14,0.56l0 1.97c-0.67,1.57 -2.8,3.8 -6.04,3.8z"/>
  <path id="14" class="fil0" d="M780.24 145.41l3.13 0 0 -19.37 -14.46 0 0 3.98c0,11.33 -2.09,12.41 -4.58,12.41l0 2.98c4.58,0.56 7.71,-2.61 7.71,-15.5l0 -0.89 8.2 0 0 16.39z"/>
  <polygon id="15" class="fil0" points="795.24,145.41 807.06,130.92 807.06,145.41 810.19,145.41 810.19,126.04 807.28,126.04 795.51,140.57 795.51,126.04 792.37,126.04 792.37,145.41 "/>
  <path id="16" class="fil0" d="M826.2 145.78c4.88,0 8.64,-2.27 8.64,-6.33 0,-1.94 -0.67,-3.32 -3.01,-4.43 1.56,-0.97 2.31,-2.43 2.31,-4.18 0,-3.2 -2.8,-5.29 -7.75,-5.29 -4.44,0 -7.23,2.16 -8.35,4.1l2.31 1.53c1.12,-1.38 2.72,-2.72 5.74,-2.72 2.64,0 4.73,0.93 4.73,2.87 0,1.75 -1.6,2.79 -3.39,2.79l-4.32 0 0 2.83 4.54 0c2.5,0 3.88,0.86 3.88,2.57 0,2.13 -2.31,3.36 -5.29,3.36 -2.98,0 -5.26,-1.34 -6.34,-3.24l-2.46 1.71c1.68,2.68 4.29,4.43 8.76,4.43z"/>
  <path id="17" class="fil0" d="M842.81 145.41l7 0c6.19,0 8.28,-3.2 8.28,-6.7 0,-3.58 -1.87,-6.64 -7.98,-6.64l-4.17 0 0 -6.03 -3.13 0 0 19.37zm6.97 -10.36c3.61,0 4.99,1.35 4.99,3.69 0,2.35 -1.3,3.69 -5.03,3.69l-3.8 0 0 -7.38 3.84 0zm11.06 10.36l3.17 0 0 -19.37 -3.17 0 0 19.37z"/>
 </g>
</svg>
