<?xml version="1.0" encoding="UTF-8"?> <!-- Generator: Adobe Illustrator 22.1.0, SVG Export Plug-In . SVG Version: 6.00 Build 0) --> <svg xmlns="http://www.w3.org/2000/svg" xmlns:xlink="http://www.w3.org/1999/xlink" id="Слой_1" x="0px" y="0px" viewBox="0 0 300 300" style="enable-background:new 0 0 300 300;" xml:space="preserve"> <style type="text/css"> .st0{fill:#A7E541;} .st1{fill:#D47A26;} </style> <path class="st0" d="M152.7,162.9c0,0,19.6,15.8,35.7,17.7c0.8,0.1,1.6,0.2,2.4,0.3c4.5,0.6,23.5,1.2,41.4-29.2c0,0,11-17.3,16-37 c0,0-0.7,33.3-10.9,66.4c0,0-13.4,40.8-33.1,60.2c0,0-26.5,29-64.3,37.4c0,0,27.9-16.6,34.5-46.8c0.1-0.6,0.3-1.3,0.4-1.9 C175.9,226,179.9,203.5,152.7,162.9z"></path> <circle class="st0" cx="196.6" cy="146.4" r="18.6"></circle> <path class="st1" d="M165.4,206c0,0-4-22-12.2-34.2c0,0-8.4-0.7-22.7,12.7c0,0-13.6-17.5-35.3-11.9c0,0-21.5,5.8-24.4,29.6 c0,0-0.7,6.6,1,10.5c0,0,3.3,7.3,3.3,10.2c0,0-12.3-0.4-14.2,2.7c-0.2,0.2-0.3,0.5-0.5,0.7c-0.7,1-2.1,4.7-1.4,17.8 c0,0.6,0,1.1,0.1,1.7c0.1,2.2,0.7,9.3,7.1,10.6c0.3,0.1,0.7,0.1,1.1,0.2c1.8,0.2,7.7,0.8,13.1,0.4c0,0,0,12.6,0.5,13.8 c0,0,0,4.4,4.9,6.5c0.9,0.4,1.9,0.6,2.9,0.7c2.4,0.3,8.7,0.9,15.8,0.3c0.3,0,0.7-0.1,1-0.1c1.4-0.1,6.7-0.7,7.8-5.6 c0,0,1.1-3.5,1.4-9.6c0,0,1.5,0.3,6.6,6.1c0,0,6.9,7.8,8.8,8.9c0,0,14.4-10.3,22.8-22.3c0.7-1,1.4-2.1,2.2-3.1 C158.5,248.3,169.8,230.8,165.4,206z M129,244.6c0,2.7-2.2,4.9-4.9,4.9h-17.2v17.2c0,2.7-2.2,4.9-4.9,4.9h-9.3 c-2.7,0-4.9-2.2-4.9-4.9v-17.2H70.7c-2.7,0-4.9-2.2-4.9-4.9v-9.3c0-2.7,2.2-4.9,4.9-4.9h17.2v-17.2c0-2.7,2.2-4.9,4.9-4.9h9.3 c2.7,0,4.9,2.2,4.9,4.9v17.2h17.2c2.7,0,4.9,2.2,4.9,4.9V244.6z"></path> <g> <path class="st0" d="M71.8,92.9l-5.2-3l-10,9.1l2.5,5.4l-6.7,6.1L37.1,75.3l7.8-7.1l33.5,18.6L71.8,92.9z M53.2,91.6l6.3-5.7 l-12.1-7L53.2,91.6z"></path> <path class="st0" d="M81.8,84.8l-3.3-7.1c2-0.6,3.2-1.5,3.7-2.8s0.2-3.2-1-5.8l-9.2-19.9l22.8-10.6L110,71.7l-7.5,3.5l-12-25.7 l-7.7,3.6l5.7,12.3c1.3,2.8,2,5.3,2.2,7.6c0.1,2.3-0.2,4.2-1.1,5.7c-0.9,1.5-2,2.7-3.2,3.7C85,83.4,83.5,84.2,81.8,84.8z"></path> <path class="st0" d="M138.7,66.3l-2.7-19.5l-11.2,21.5l-6.2,0.9l-5-36l8.2-1.1l2.7,19.5l11.2-21.5l6.2-0.9l5,36L138.7,66.3z"></path> <path class="st0" d="M171.8,68.5c-5.4-0.8-9.5-3.3-12.5-7.5c-3-4.1-4-8.8-3.2-14.1c0.8-5.3,3.3-9.5,7.4-12.5 c4.1-3,8.8-4.1,14.2-3.3c3.2,0.5,6.1,1.7,8.6,3.6c2.5,1.9,4.3,4.3,5.5,7.1l-7.7,3c-0.6-1.5-1.5-2.8-2.9-3.8c-1.3-1-2.9-1.6-4.7-1.9 c-3.2-0.5-5.9,0.1-8.1,1.7c-2.2,1.6-3.6,4.1-4.1,7.3c-0.5,3.2,0,5.9,1.6,8.2s4,3.6,7.2,4.1c1.8,0.3,3.5,0.2,5.1-0.4 c1.6-0.6,2.9-1.5,3.9-2.7l6.4,5.2c-1.9,2.3-4.4,4-7.4,5.1C178.2,68.7,175.1,69,171.8,68.5z"></path> <path class="st0" d="M214.2,82.9l0.9-5.9L203,71l-4.2,4.3l-8.1-4l27.2-27l9.5,4.7l-5.1,38L214.2,82.9z M208.7,65.1l7.6,3.8 l2.1-13.8L208.7,65.1z"></path> <path class="st0" d="M261.5,73.5c2.6,2.4,4,5.3,4.2,8.8c0.2,3.4-0.9,6.4-3.2,9c-2.3,2.5-5.2,3.9-8.7,4c-3.4,0.1-6.5-1-9.1-3.4 l-4-3.7l-7.7,8.4l-6.1-5.6l24.5-26.8L261.5,73.5z M250,86.1c0.9,0.9,2,1.2,3.2,1.1c1.2-0.1,2.3-0.6,3.2-1.6c0.9-1,1.3-2.1,1.3-3.3 c0-1.2-0.5-2.3-1.4-3.1l-4-3.7l-6.3,6.9L250,86.1z"></path> </g> </svg> 